<?xml version="1.0" encoding="UTF-8" standalone="no"?>
<svg
		xmlns:inkscape="http://www.inkscape.org/namespaces/inkscape"
		xmlns:sodipodi="http://sodipodi.sourceforge.net/DTD/sodipodi-0.dtd"
		id="svg"
		version="1.1"
		width="172.2653"
		height="243.52139"
		style="display:block"
		xmlns="http://www.w3.org/2000/svg"
>
	<defs
			id="defs23">
		<filter
				style="color-interpolation-filters:sRGB;"
				id="filter783"
				x="0"
				y="0"
				width="1"
				height="1">
			<feColorMatrix
					values="-10 -10 -10 -10 0 -10 -10 -10 -10 0 -10 -10 -10 -10 0 0 0 0 1 0 "
					id="feColorMatrix781"/>
		</filter>
	</defs>
	<sodipodi:namedview
			id="namedview21"
			pagecolor="#505050"
			bordercolor="#eeeeee"
			borderopacity="1"
			inkscape:showpageshadow="0"
			inkscape:pageopacity="0"
			inkscape:pagecheckerboard="0"
			inkscape:deskcolor="#505050"
			showgrid="false"
			inkscape:zoom="2.8779246"
			inkscape:cx="114.66596"
			inkscape:cy="113.62355"
			inkscape:window-width="1920"
			inkscape:window-height="1017"
			inkscape:window-x="1912"
			inkscape:window-y="-8"
			inkscape:window-maximized="1"
			inkscape:current-layer="svg"/>
	<g
			id="svgg"
			transform="translate(-113.65371,-76.093015)"
			style="filter:url(#filter783)">
		<path
				id="path0"
				d="m 187.4,76.546 c -0.88,0.286 -2.171,0.817 -2.869,1.181 -0.698,0.364 -2.588,0.774 -4.2,0.911 -1.746,0.149 -3.804,0.638 -5.09,1.211 -1.188,0.529 -3.298,1.225 -4.689,1.548 -5.459,1.266 -13.358,5.789 -18.224,10.436 -2.939,2.807 -5.19,4.586 -6.853,5.415 -4.046,2.019 -20.368,18.577 -21.048,21.352 -0.269,1.1 -0.856,2.99 -1.304,4.2 -0.447,1.21 -1.138,3.37 -1.535,4.8 -0.397,1.43 -1.121,3.491 -1.609,4.58 -0.488,1.089 -1.132,3.03 -1.431,4.313 -0.3,1.283 -0.908,3.044 -1.351,3.914 -0.461,0.903 -0.957,2.999 -1.157,4.887 -0.225,2.134 -0.718,4.086 -1.391,5.506 -1.343,2.838 -1.329,4.823 0.055,7.6 l 1.096,2.2 0.2,20.6 0.2,20.6 2.281,4.455 c 1.254,2.451 2.552,5.624 2.883,7.053 0.368,1.588 2.258,5.92 4.86,11.145 l 4.258,8.547 -0.262,3.296 c -0.226,2.852 -0.147,3.552 0.588,5.2 0.468,1.047 1.003,3.344 1.191,5.104 0.212,1.986 0.737,4.058 1.383,5.461 0.631,1.371 1.136,3.339 1.283,5 0.133,1.506 0.692,3.819 1.242,5.139 0.55,1.32 1.252,3.471 1.561,4.781 1.109,4.709 2.987,5.998 9.259,6.354 5.494,0.312 6.786,1.019 9.029,4.936 0.979,1.71 3.232,4.531 5.572,6.973 4.664,4.872 5.054,5.548 5.354,9.286 0.306,3.819 1.001,5.043 5.184,9.126 l 3.541,3.456 12.543,6.244 c 14.128,7.033 14.638,7.18 17.547,5.072 0.89,-0.644 2.578,-1.658 3.75,-2.252 1.392,-0.705 4.107,-3.002 7.814,-6.608 3.996,-3.888 6.376,-5.878 8.027,-6.711 3.43,-1.732 4.706,-3.217 5.492,-6.392 1.413,-5.713 3.432,-8.911 9.597,-15.202 7.084,-7.228 7.721,-7.617 12.975,-7.937 6.16,-0.376 8.905,-3.357 9.506,-10.326 0.148,-1.717 0.674,-3.806 1.36,-5.4 0.685,-1.592 1.232,-3.763 1.411,-5.6 0.18,-1.839 0.734,-4.036 1.432,-5.678 1.315,-3.092 1.458,-5.577 0.526,-9.173 -0.914,-3.526 0.134,-6.76 3.42,-10.557 2.055,-2.374 4.238,-6.684 5.019,-9.905 0.331,-1.368 1.721,-4.818 3.088,-7.668 l 2.486,-5.181 0.208,-19.019 0.207,-19.019 2.093,-4.317 c 2.305,-4.755 2.461,-5.756 1.313,-8.434 -0.428,-0.999 -0.9,-2.499 -1.047,-3.333 -0.148,-0.834 -0.767,-2.686 -1.375,-4.116 -0.68,-1.601 -1.212,-3.753 -1.383,-5.6 -0.234,-2.522 -0.648,-3.765 -2.598,-7.8 -1.276,-2.64 -2.521,-5.751 -2.767,-6.913 -0.247,-1.162 -0.809,-2.822 -1.251,-3.687 -0.442,-0.865 -1.004,-2.525 -1.251,-3.687 -0.893,-4.214 -5.467,-9.533 -10.825,-12.587 -1.741,-0.993 -4.549,-3.346 -8.033,-6.734 -3.757,-3.653 -6.123,-5.614 -7.924,-6.564 -1.412,-0.745 -3.847,-2.562 -5.411,-4.037 -1.813,-1.71 -3.48,-2.897 -4.6,-3.276 -0.966,-0.327 -2.926,-0.994 -4.356,-1.482 -1.43,-0.488 -3.95,-1.303 -5.6,-1.81 -1.65,-0.507 -3.72,-1.244 -4.6,-1.636 -0.999,-0.445 -3.253,-0.83 -6,-1.024 -3.57,-0.253 -4.853,-0.524 -6.8,-1.437 -2.83,-1.328 -18.592,-1.887 -22,-0.78 m 14.489,9.734 c 0.59,0.9 0.744,2.32 0.922,8.5 0.118,4.081 0.35,7.638 0.516,7.905 0.166,0.266 0.467,2.336 0.67,4.6 0.203,2.263 0.481,4.662 0.619,5.33 0.369,1.792 -0.774,3.011 -3.065,3.269 -3.694,0.416 -5.496,-1.557 -4.794,-5.249 0.74,-3.894 0.864,-6.917 0.438,-10.665 -1.144,-10.07 1.676,-18.296 4.694,-13.69 m -1.518,118.374 c 0.996,1.267 1.338,64.191 0.36,66.337 -0.985,2.163 -3.613,1.618 -4.311,-0.896 -0.57,-2.05 -0.571,-62.134 -0.002,-64.184 0.677,-2.436 2.556,-3.034 3.953,-1.257 M 162.714,240.7 c 13.586,6.726 18.274,11.728 16.743,17.864 -0.397,1.592 -0.527,3.304 -0.376,4.942 0.454,4.922 -3.204,6.225 -14.966,5.331 -0.267,-0.02 -2.223,-1.702 -4.347,-3.737 -3.375,-3.234 -4.474,-4.005 -8.715,-6.119 l -4.853,-2.42 0.046,-1.78 c 0.026,-0.98 0.476,-2.906 1,-4.281 l 0.954,-2.5 -0.941,-2.5 c -1.547,-4.111 -1.549,-5.141 -0.018,-6.886 3.045,-3.468 4.707,-3.244 15.473,2.086 m 85.774,-3.8 c 0.534,0.417 1.788,3.23 2.859,6.416 0.132,0.394 -0.135,1.803 -0.594,3.129 -0.912,2.634 -0.867,3.364 0.43,6.962 1.344,3.729 1.095,4.064 -5.268,7.102 -4.568,2.182 -5.556,2.827 -7.029,4.588 -2.452,2.929 -7.938,6.503 -9.984,6.503 -3.69,0 -12.711,-7.2 -13.496,-10.771 -1.424,-6.486 12.99,-19.471 24.615,-22.175 1.418,-0.33 3.389,-0.968 4.379,-1.418 2.083,-0.947 3.188,-1.038 4.088,-0.336 m -44.077,51.331 c 8.243,3.946 8.633,7.769 0.793,7.769 -1.472,0 -3.56,0.268 -4.64,0.596 -2.438,0.739 -12.807,0.841 -14.345,0.14 -4.345,-1.98 5.711,-9.936 12.557,-9.936 2.212,0 3.137,0.235 5.635,1.431"
				stroke="none"
				fill="#000000"
				fill-rule="evenodd"/>
		<path
				id="path1"
				d="m 209.4,77.326 c 1.947,0.913 3.23,1.184 6.8,1.437 2.747,0.194 5.001,0.579 6,1.024 0.88,0.392 2.95,1.129 4.6,1.636 1.65,0.507 4.17,1.322 5.6,1.81 1.43,0.488 3.39,1.155 4.356,1.482 1.12,0.379 2.787,1.566 4.6,3.276 1.564,1.475 3.999,3.292 5.411,4.037 1.801,0.95 4.167,2.911 7.924,6.564 3.484,3.388 6.292,5.741 8.033,6.734 5.358,3.054 9.932,8.373 10.825,12.587 0.247,1.162 0.809,2.822 1.251,3.687 0.442,0.865 1.004,2.525 1.251,3.687 0.246,1.162 1.491,4.273 2.767,6.913 1.95,4.035 2.364,5.278 2.598,7.8 0.171,1.847 0.703,3.999 1.383,5.6 0.608,1.43 1.227,3.282 1.375,4.116 0.147,0.834 0.619,2.334 1.047,3.333 1.148,2.678 0.992,3.679 -1.313,8.434 l -2.093,4.317 -0.207,19.019 -0.208,19.019 -2.486,5.181 c -1.367,2.85 -2.757,6.3 -3.088,7.668 -0.781,3.221 -2.964,7.531 -5.019,9.905 -3.286,3.797 -4.334,7.031 -3.42,10.557 0.932,3.596 0.789,6.081 -0.526,9.173 -0.698,1.642 -1.252,3.839 -1.432,5.678 -0.179,1.837 -0.726,4.008 -1.411,5.6 -0.686,1.594 -1.212,3.683 -1.36,5.4 -0.601,6.969 -3.346,9.95 -9.506,10.326 -5.254,0.32 -5.891,0.709 -12.975,7.937 -6.165,6.291 -8.184,9.489 -9.597,15.202 -0.786,3.175 -2.062,4.66 -5.492,6.392 -1.651,0.833 -4.031,2.823 -8.027,6.711 -3.707,3.606 -6.422,5.903 -7.814,6.608 -1.172,0.594 -2.86,1.608 -3.75,2.252 -2.909,2.108 -3.419,1.961 -17.547,-5.072 l -12.543,-6.244 -3.541,-3.456 c -4.183,-4.083 -4.878,-5.307 -5.184,-9.126 -0.3,-3.738 -0.69,-4.414 -5.354,-9.286 -2.34,-2.442 -4.593,-5.263 -5.572,-6.973 -2.243,-3.917 -3.535,-4.624 -9.029,-4.936 -6.272,-0.356 -8.15,-1.645 -9.259,-6.354 -0.309,-1.31 -1.011,-3.461 -1.561,-4.781 -0.55,-1.32 -1.109,-3.633 -1.242,-5.139 -0.147,-1.661 -0.652,-3.629 -1.283,-5 -0.646,-1.403 -1.171,-3.475 -1.383,-5.461 -0.188,-1.76 -0.723,-4.057 -1.191,-5.104 -0.735,-1.648 -0.814,-2.348 -0.588,-5.2 l 0.262,-3.296 -4.258,-8.547 c -2.602,-5.225 -4.492,-9.557 -4.86,-11.145 -0.331,-1.429 -1.629,-4.602 -2.883,-7.053 L 116.2,201.8 116,181.2 l -0.2,-20.6 -1.096,-2.2 c -1.384,-2.777 -1.398,-4.762 -0.055,-7.6 0.673,-1.42 1.166,-3.372 1.391,-5.506 0.2,-1.888 0.696,-3.984 1.157,-4.887 0.443,-0.87 1.051,-2.631 1.351,-3.914 0.299,-1.283 0.943,-3.224 1.431,-4.313 0.488,-1.089 1.212,-3.15 1.609,-4.58 0.397,-1.43 1.088,-3.59 1.535,-4.8 0.448,-1.21 1.035,-3.1 1.304,-4.2 0.68,-2.775 17.002,-19.333 21.048,-21.352 1.663,-0.829 3.914,-2.608 6.853,-5.415 4.866,-4.647 12.765,-9.17 18.224,-10.436 1.391,-0.323 3.501,-1.019 4.689,-1.548 1.286,-0.573 3.344,-1.062 5.09,-1.211 1.612,-0.137 3.502,-0.547 4.2,-0.911 2.973,-1.55 4.25,-1.703 13.469,-1.614 8.95,0.087 9.013,0.093 11.4,1.213 M 198.26,86.1 c -0.941,1.517 -1.557,9.542 -1.065,13.87 0.426,3.748 0.302,6.771 -0.438,10.665 -0.702,3.692 1.1,5.665 4.794,5.249 2.291,-0.258 3.434,-1.477 3.065,-3.269 -0.138,-0.668 -0.416,-3.067 -0.619,-5.33 -0.203,-2.264 -0.504,-4.334 -0.67,-4.6 -0.166,-0.267 -0.398,-3.824 -0.516,-7.905 -0.178,-6.18 -0.332,-7.6 -0.922,-8.5 -0.916,-1.398 -2.815,-1.493 -3.629,-0.18 m -0.744,117.923 c -0.377,0.22 -0.871,1.069 -1.098,1.888 -0.569,2.05 -0.568,62.134 0.002,64.184 0.698,2.514 3.326,3.059 4.311,0.896 0.978,-2.146 0.636,-65.07 -0.36,-66.337 -0.872,-1.108 -1.717,-1.295 -2.855,-0.631 m -48.138,32.761 c -3.227,1.307 -3.887,4.018 -2.119,8.716 l 0.941,2.5 -0.954,2.5 c -0.524,1.375 -0.974,3.301 -1,4.281 l -0.046,1.78 4.853,2.42 c 4.241,2.114 5.34,2.885 8.715,6.119 2.124,2.035 4.08,3.717 4.347,3.737 11.762,0.894 15.42,-0.409 14.966,-5.331 -0.151,-1.638 -0.021,-3.35 0.376,-4.942 0.99,-3.966 0.461,-5.199 -4.188,-9.764 -6.666,-6.547 -21.918,-13.626 -25.891,-12.016 m 95.022,0.452 c -0.99,0.45 -2.961,1.088 -4.379,1.418 -11.625,2.704 -26.039,15.689 -24.615,22.175 0.785,3.571 9.806,10.771 13.496,10.771 2.046,0 7.532,-3.574 9.984,-6.503 1.473,-1.761 2.461,-2.406 7.029,-4.588 6.363,-3.038 6.612,-3.373 5.268,-7.102 -1.297,-3.598 -1.342,-4.328 -0.43,-6.962 0.459,-1.326 0.726,-2.735 0.594,-3.129 -2.396,-7.127 -3.164,-7.8 -6.947,-6.08 m -52.235,51.503 c -6.041,2.956 -8.817,6.689 -5.946,7.997 1.538,0.701 11.907,0.599 14.345,-0.14 1.08,-0.328 3.168,-0.596 4.64,-0.596 7.84,0 7.45,-3.823 -0.793,-7.769 -4.517,-2.163 -6.996,-2.06 -12.246,0.508"
				stroke="none"
				fill="#ffffff"
				fill-rule="evenodd"
				sodipodi:nodetypes="ccsssccccccscccccccccccccccccccccccccscccccccscccccccccccccccccsscccccccccccccsccccccccccccccccccccccccccccscccccccccscc"/>
	</g>
</svg>
