<svg data-name="Layer 1" width="29.92" height="29.91" xmlns="http://www.w3.org/2000/svg"><path d="M17.93 17.59c1.74-1.5 2.62-2.94 2.62-4.3a2.67 2.67 0 0 0-2.62-2.86 3.23 3.23 0 0 0-1.57.28 2.37 2.37 0 0 0-.73.52l-.67.68-.66-.68a2.52 2.52 0 0 0-.73-.51 3.34 3.34 0 0 0-1.57-.29 2.65 2.65 0 0 0-2.63 2.86c0 1.36.88 2.8 2.62 4.3a17.29 17.29 0 0 0 3 2 17.29 17.29 0 0 0 2.94-2z" style="fill:#f70059;fill-rule:evenodd"/><path d="M29.92 1.44v27.05a1.44 1.44 0 0 1-.42 1 1.41 1.41 0 0 1-1 .42H1.43A1.43 1.43 0 0 1 0 28.49v-27A1.43 1.43 0 0 1 1.43 0H15a1.44 1.44 0 0 1 1.43 1.44v4.19a1.43 1.43 0 0 1-.42 1 1.41 1.41 0 0 1-1 .46 1.43 1.43 0 0 1-1.44-1.43V2.87H2.87v24.22h24.2V2.87h-3.95a1.41 1.41 0 0 1-1-.42 1.44 1.44 0 0 1 1-2.45h5.37a1.44 1.44 0 0 1 1.43 1.44Z" style="fill:#056bbf"/></svg>