<svg width="172.3" height="243.5" style="display:block" xmlns="http://www.w3.org/2000/svg">
	<defs>
		<filter style="color-interpolation-filters:sRGB" id="a" x="0" y="0" width="1" height="1">
			<feColorMatrix values="-10 -10 -10 -10 0 -10 -10 -10 -10 0 -10 -10 -10 -10 0 0 0 0 1 0"/>
		</filter>
	</defs>
	<g transform="translate(-114 -76)" style="filter:url(#a)" fill-rule="evenodd">
		<path
			d="m187 77-2 1-5 1-5 1-4 1c-6 2-14 6-19 11l-7 5c-4 2-20 19-21 22l-1 4-1 5-2 4-1 4-2 4-1 5-1 6c-2 3-2 5 0 7l1 3v41l2 4 3 7 5 11 4 9v3l1 5 1 6 1 5 2 5 1 5 1 5c2 5 3 6 10 6 5 1 7 1 9 5l5 7c5 5 5 6 6 10 0 3 1 5 5 9l3 3 13 6c14 7 15 8 17 5l4-2 8-6 8-7c4-2 5-3 6-7 1-5 3-8 9-15 7-7 8-7 13-8 6 0 9-3 10-10l1-5 1-6 2-6v-9c-1-3 1-7 4-10l5-10 3-8 2-5 1-19v-19l2-5c2-4 2-5 1-8l-1-3-1-4-2-6-2-8-3-7-1-3-1-4c-1-4-6-10-11-13l-8-6-8-7-6-4-4-3a2360 2360 0 0 1-28-8c-2-1-18-2-22 0m15 9 1 9a62 62 0 0 0 1 12l1 6c0 1-1 3-3 3-4 0-6-2-5-5v-11c-1-10 2-18 5-14m-2 119c1 1 2 64 1 66s-4 2-5-1v-64c1-3 3-3 4-1m-37 36c13 6 18 11 16 18v5c1 4-3 6-15 5l-4-4-9-6-5-2v-2l1-5 1-2-1-3v-6c3-4 5-4 16 2m85-4 3 6v10c2 4 1 4-5 8-5 2-6 2-7 4-3 3-8 7-10 7-4 0-13-8-14-11-1-7 13-20 25-22l4-2h4m-44 51c9 4 9 8 1 8l-4 1h-15c-4-2 6-10 13-10l5 1"/>
		<path
			d="m209 77 7 2 6 1 5 1a233 233 0 0 1 10 4l4 3 6 4 8 7 8 6c5 3 10 9 11 13l1 4 1 3 3 7 2 8 2 6 1 4 1 3c1 3 1 4-1 8l-2 5v19l-1 19-2 5-3 8-5 10c-3 3-5 7-4 10v9l-2 6-1 6-1 5c-1 7-4 10-10 10-5 1-6 1-13 8-6 7-8 10-9 15-1 4-2 5-6 7l-8 7a45 45 0 0 1-12 8c-2 3-3 2-17-5l-13-6-3-3c-4-4-5-6-5-9-1-4-1-5-6-10l-5-7c-2-4-4-4-9-5-7 0-8-1-10-6l-1-5-1-5-2-5-1-5-1-6-1-5v-3l-4-9-5-11-3-7-2-4v-41l-1-3c-2-2-2-4 0-7l1-6 1-5 2-4 1-4 2-4a74 74 0 0 1 2-9c1-3 17-20 21-22l7-5c5-5 13-9 19-11l4-1 5-1 5-1c3-2 4-2 13-2l11 1m-11 9-1 14v11c-1 3 1 5 5 5 2 0 3-2 3-3l-1-6-1-4v-8l-1-9h-4m0 118-2 2v64c1 3 4 3 5 1s0-65-1-66-1-2-2-1m-49 33c-3 1-4 4-2 8l1 3-1 3-1 4v2l5 2 9 6 4 4c12 1 16-1 15-5v-5c1-4 1-6-4-10-6-7-22-14-26-12m95 0-4 2c-12 2-26 15-25 22 1 3 10 11 14 11 2 0 7-4 10-7 1-2 2-2 7-4 6-4 7-4 5-8v-10c-2-7-3-7-7-6m-52 52c-6 3-9 6-6 8h15l4-1c8 0 8-4-1-8-4-2-7-2-12 1"
			fill="#fff"/>
	</g>
</svg>
